<svg viewBox="0 0 60 18" fill="none" xmlns="http://www.w3.org/2000/svg"><path fill-rule="evenodd" clip-rule="evenodd" d="M1.1 5.224l3.916 1.542-.222-4.37h3.55l-.183 4.37 3.878-1.542 1.098 3.567-4.003 1.155 2.635 3.407-2.875 2.216-2.325-3.662-2.296 3.662-2.875-2.216 2.605-3.439L0 8.76l1.1-3.536z" fill="#40B659"/><path fill-rule="evenodd" clip-rule="evenodd" d="M25.707 13.055c.549-.884.819-2.235.819-4.052 0-1.821-.27-3.172-.82-4.053-.56-.884-1.33-1.327-2.344-1.327-1.004 0-1.784.443-2.344 1.327-.56.88-.84 2.232-.84 4.053 0 1.817.28 3.168.84 4.052.56.885 1.34 1.328 2.344 1.328 1.013 0 1.786-.443 2.345-1.328zm-6.04 3.88c-1.06-.71-1.87-1.742-2.44-3.096-.56-1.355-.849-2.968-.849-4.836 0-1.868.29-3.481.85-4.836.569-1.355 1.378-2.389 2.44-3.102C20.72.355 21.955 0 23.362 0c1.418 0 2.653.356 3.694 1.065 1.052.713 1.853 1.746 2.423 3.102.56 1.355.848 2.968.848 4.836 0 1.868-.29 3.481-.848 4.836-.57 1.354-1.37 2.388-2.423 3.096-1.04.713-2.276 1.065-3.694 1.065-1.407 0-2.642-.352-3.694-1.065zM38.72.325v17.354h-3.752V4.54l-3.483 2.083V2.655l3.858-2.33h3.377zm13.041 0v3.172l-6.183 14.182h-3.935l6.019-13.735h-7.197V.324h11.296zm8.239 0v17.354h-3.754V4.54l-3.49 2.083V2.655l3.867-2.33H60z" fill="#232D40"/></svg>